<svg width="415" height="415" viewBox="0 0 415 415" fill="none" xmlns="http://www.w3.org/2000/svg">
<g clip-path="url(#clip0_2823_3867)">
<path d="M377.176 6.38082C377.176 6.38082 360.023 61.803 317.052 96.204C274.079 130.607 223.698 118.402 148.708 181.038C73.7173 243.675 22.3374 368.457 22.3374 368.457C22.3374 368.457 66.3877 341.75 100.211 349.708C134.034 357.665 230.34 392.732 306.25 343.177C382.161 293.622 394.901 204.886 398.382 125.894C401.146 63.1529 377.176 6.38082 377.176 6.38082ZM314.521 188.614C314.521 188.614 311.232 207.316 299.935 226.954C288.638 246.592 274.479 276.317 241.697 297.412C208.914 318.506 182.335 312.229 168.802 311.345C155.269 310.462 128.166 303.494 128.166 303.494C128.166 303.494 147.19 257.962 183.308 232.332C219.426 206.702 247.64 205.45 272.657 201.002C297.675 196.553 314.521 188.614 314.521 188.614Z" fill="#F11075"/>
</g>
<defs>
<clipPath id="clip0_2823_3867">
<rect width="414.92" height="414.92" fill="white"/>
</clipPath>
</defs>
</svg>
