<?xml version="1.0" encoding="UTF-8"?> <svg xmlns="http://www.w3.org/2000/svg" width="330" height="161" viewBox="0 0 330 161"><defs><filter id="prefix__a" width="161.6%" height="289.5%" x="-30.8%" y="-94.5%" filterUnits="objectBoundingBox"><feOffset in="SourceAlpha" result="shadowOffsetOuter1"></feOffset><feGaussianBlur in="shadowOffsetOuter1" result="shadowBlurOuter1" stdDeviation="20"></feGaussianBlur><feColorMatrix in="shadowBlurOuter1" result="shadowMatrixOuter1" values="0 0 0 0 1 0 0 0 0 0 0 0 0 0 0.752950175 0 0 0 0.500437063 0"></feColorMatrix><feMerge><feMergeNode in="shadowMatrixOuter1"></feMergeNode><feMergeNode in="SourceGraphic"></feMergeNode></feMerge></filter></defs><g fill="none" fill-rule="evenodd" filter="url(#prefix__a)" transform="translate(40 40)"><path fill="#E5007D" d="M0 81.515L249.954 81.515 249.954 0 0 0z"></path><path fill="#000" d="M4.78 76.732L245.174 76.732 245.174 4.783 4.78 4.783z"></path><path fill="#FFF" d="M33.329 22.6L43.295 47.589 53.401 22.6 59.353 22.6 43.178 61.367 27.377 22.6zM92.046 27.714L77.598 27.714 77.598 36.378 91.626 36.378 91.626 41.493 77.598 41.493 77.598 53.543 92.046 53.543 92.046 58.658 72.161 58.658 72.161 22.6 92.046 22.6zM109.117 58.659L109.117 20.148 135.398 47.659 135.398 22.599 140.836 22.599 140.836 60.854 114.556 33.413 114.556 58.659z"></path><g fill="#FFF"><path d="M6.499 1.388v21.72c0 3.099.506 5.364 1.517 6.796 1.509 2.07 3.633 3.106 6.371 3.106 2.755 0 4.885-1.035 6.397-3.106 1.01-1.386 1.516-3.651 1.516-6.796V1.388h5.438v23.215c0 3.798-1.182 6.928-3.547 9.387-2.66 2.74-5.929 4.111-9.804 4.111-3.873 0-7.134-1.37-9.779-4.11-2.365-2.46-3.548-5.59-3.548-9.388V1.388H6.5zM62.366 6.76l-4.411 2.615c-.825-1.431-1.612-2.366-2.357-2.802-.78-.498-1.782-.747-3.012-.747-1.51 0-2.762.428-3.757 1.283-.996.841-1.495 1.901-1.495 3.178 0 1.758 1.307 3.176 3.922 4.25l3.595 1.47c2.924 1.184 5.065 2.628 6.419 4.334 1.352 1.705 2.03 3.794 2.03 6.27 0 3.317-1.105 6.056-3.315 8.22-2.225 2.18-4.988 3.27-8.286 3.27-3.127 0-5.71-.927-7.748-2.78-2.008-1.852-3.26-4.46-3.758-7.823l5.508-1.214c.248 2.117.685 3.581 1.306 4.39 1.121 1.558 2.755 2.336 4.902 2.336 1.696 0 3.104-.567 4.225-1.705 1.12-1.136 1.68-2.577 1.68-4.321 0-.7-.097-1.342-.29-1.926-.196-.584-.499-1.122-.912-1.612-.411-.49-.945-.949-1.599-1.378-.653-.428-1.43-.836-2.334-1.226l-3.477-1.447c-4.933-2.086-7.399-5.138-7.399-9.155 0-2.71 1.035-4.974 3.104-6.797 2.07-1.837 4.645-2.755 7.725-2.755 4.156 0 7.4 2.024 9.734 6.072" transform="translate(155.134 21.211)"></path></g></g></svg> 